<?xml version="1.0" encoding="UTF-8" standalone="no"?>
<svg
   width="92.821877pt"
   height="55.120419pt"
   viewBox="0 0 92.821877 55.120416"
   version="1.1"
   id="svg18"
   sodipodi:docname="org49.svg"
   inkscape:version="1.4.3 (0d15f75, 2025-12-25)"
   xmlns:inkscape="http://www.inkscape.org/namespaces/inkscape"
   xmlns:sodipodi="http://sodipodi.sourceforge.net/DTD/sodipodi-0.dtd"
   xmlns:xlink="http://www.w3.org/1999/xlink"
   xmlns="http://www.w3.org/2000/svg"
   xmlns:svg="http://www.w3.org/2000/svg">
  <sodipodi:namedview
     id="namedview18"
     pagecolor="#ffffff"
     bordercolor="#666666"
     borderopacity="1.0"
     inkscape:showpageshadow="2"
     inkscape:pageopacity="0.0"
     inkscape:pagecheckerboard="0"
     inkscape:deskcolor="#d1d1d1"
     inkscape:document-units="pt"
     inkscape:zoom="5.46"
     inkscape:cx="63.827839"
     inkscape:cy="36.904762"
     inkscape:window-width="1920"
     inkscape:window-height="1001"
     inkscape:window-x="-9"
     inkscape:window-y="-9"
     inkscape:window-maximized="1"
     inkscape:current-layer="svg18" />
  <defs
     id="defs4">
    <g
       id="g3">
      <g
         id="glyph-0-0">
        <path
           d="m 5.359375,-1.0625 c -0.53125,0.40625 -1.03125,0.546875 -1.765625,0.546875 -1.34375,0 -2.140625,-1.375 -2.140625,-2.578125 0,-1.328125 0.828125,-2.625 2.140625,-2.625 0.609375,0 1.15625,0.171875 1.59375,0.484375 l 0.140625,-0.78125 c -0.46875,-0.203125 -1.046875,-0.3125 -1.671875,-0.3125 -1.765625,0 -3.0625,1.453125 -3.0625,3.21875 0,1.703125 1.25,3.203125 3.0625,3.203125 0.828125,0 1.15625,-0.125 1.765625,-0.5 z m 0,0"
           id="path1" />
      </g>
      <g
         id="glyph-0-1">
        <path
           d="m 6.28125,-3.078125 c 0,-1.90625 -1.328125,-3.34375 -2.875,-3.34375 -1.5625,0 -2.890625,1.4375 -2.890625,3.34375 0,1.859375 1.34375,3.28125 2.890625,3.28125 1.546875,0 2.875,-1.421875 2.875,-3.28125 z m -2.875,2.640625 c -1.078125,0 -2.03125,-1.09375 -2.03125,-2.78125 0,-1.640625 1,-2.59375 2.03125,-2.59375 1.015625,0 2.015625,0.953125 2.015625,2.59375 0,1.6875 -0.953125,2.78125 -2.015625,2.78125 z m 0,0"
           id="path2" />
      </g>
      <g
         id="glyph-0-2">
        <path
           d="M 5.65625,-6.21875 H 4.796875 v 2.6875 H 1.71875 v -2.6875 H 0.859375 V 0 H 1.71875 V -2.9375 H 4.796875 V 0 H 5.65625 Z m 0,0"
           id="path3" />
      </g>
    </g>
    <clipPath
       id="clip-0">
      <path
         clip-rule="nonzero"
         d="M 0,0 H 124.17969 V 81.550781 H 0 Z m 0,0"
         id="path4" />
    </clipPath>
  </defs>
  <g
     clip-path="url(#clip-0)"
     id="g5"
     sodipodi:insensitive="true"
     transform="translate(-14.142375,-13.088125)">
    <path
       fill-rule="nonzero"
       fill="#000000"
       fill-opacity="1"
       d="M 0,81.550781 H 124.17969 V 0 H 0 Z m 0,0"
       id="path5" />
  </g>
  <path
     fill="none"
     stroke-width="0.3985"
     stroke-linecap="butt"
     stroke-linejoin="miter"
     stroke="#ffffff"
     stroke-opacity="1"
     stroke-miterlimit="10"
     d="m 50.002156,37.314219 c 0,-5.953125 -4.820312,-10.777344 -10.773437,-10.777344 -5.949219,0 -10.773438,4.824219 -10.773438,10.777344 0,5.949219 4.824219,10.773437 10.773438,10.773437 5.953125,0 10.773437,-4.824218 10.773437,-10.773437"
     id="path6" />
  <path
     fill="none"
     stroke-width="0.89664"
     stroke-linecap="butt"
     stroke-linejoin="miter"
     stroke="#ffffff"
     stroke-opacity="1"
     stroke-miterlimit="10"
     d="m 24.865438,45.607187 14.363281,8.292969"
     id="path7" />
  <path
     fill="none"
     stroke-width="0.89664"
     stroke-linecap="butt"
     stroke-linejoin="miter"
     stroke="#ffffff"
     stroke-opacity="1"
     stroke-miterlimit="10"
     d="M 39.228719,53.900156 53.595906,45.607187"
     id="path8" />
  <path
     fill="none"
     stroke-width="0.89664"
     stroke-linecap="butt"
     stroke-linejoin="miter"
     stroke="#ffffff"
     stroke-opacity="1"
     stroke-miterlimit="10"
     d="m 53.595906,45.607187 15.800781,9.125001"
     id="path9" />
  <path
     fill="none"
     stroke-width="0.89664"
     stroke-linecap="butt"
     stroke-linejoin="miter"
     stroke="#ffffff"
     stroke-opacity="1"
     stroke-miterlimit="10"
     d="M 53.595906,45.607187 V 29.017344"
     id="path10" />
  <g
     fill="#ffffff"
     fill-opacity="1"
     id="g10"
     transform="translate(-14.142375,-13.088125)">
    <use
       xlink:href="#glyph-0-0"
       x="80.595001"
       y="36.097"
       id="use10" />
  </g>
  <path
     fill="none"
     stroke-width="0.89664"
     stroke-linecap="butt"
     stroke-linejoin="miter"
     stroke="#ffffff"
     stroke-opacity="1"
     stroke-miterlimit="10"
     d="M 53.595906,29.017344 65.592,22.091563"
     id="path11" />
  <g
     fill="#ffffff"
     fill-opacity="1"
     id="g11"
     transform="translate(-14.142375,-13.088125)">
    <use
       xlink:href="#glyph-0-1"
       x="80.135002"
       y="19.51"
       id="use11" />
  </g>
  <path
     fill="none"
     stroke-width="0.89664"
     stroke-linecap="butt"
     stroke-linejoin="miter"
     stroke="#ffffff"
     stroke-opacity="1"
     stroke-miterlimit="10"
     d="M 67.9045,15.786875 V 7.4157808"
     id="path12" />
  <path
     fill="none"
     stroke-width="0.89664"
     stroke-linecap="butt"
     stroke-linejoin="miter"
     stroke="#ffffff"
     stroke-opacity="1"
     stroke-miterlimit="10"
     d="M 70.892781,15.786875 V 7.4157808"
     id="path13" />
  <g
     fill="#ffffff"
     fill-opacity="1"
     id="g13"
     transform="translate(-14.142375,-13.088125)">
    <use
       xlink:href="#glyph-0-1"
       x="94.500999"
       y="44.390999"
       id="use13" />
  </g>
  <g
     fill="#ffffff"
     fill-opacity="1"
     id="g14"
     transform="translate(-14.142375,-13.088125)">
    <use
       xlink:href="#glyph-0-2"
       x="101.308"
       y="44.390999"
       id="use14" />
  </g>
  <path
     fill="none"
     stroke-width="0.89664"
     stroke-linecap="butt"
     stroke-linejoin="miter"
     stroke="#ffffff"
     stroke-opacity="1"
     stroke-miterlimit="10"
     d="m 73.205281,22.091563 6.289063,3.632812"
     id="path14" />
  <path
     fill="none"
     stroke-width="0.89664"
     stroke-linecap="butt"
     stroke-linejoin="miter"
     stroke="#ffffff"
     stroke-opacity="1"
     stroke-miterlimit="10"
     d="M 53.595906,29.017344 39.228719,20.724375"
     id="path15" />
  <path
     fill="none"
     stroke-width="0.89664"
     stroke-linecap="butt"
     stroke-linejoin="miter"
     stroke="#ffffff"
     stroke-opacity="1"
     stroke-miterlimit="10"
     d="M 39.228719,20.724375 24.865438,29.017344"
     id="path16" />
  <g
     fill="#ffffff"
     fill-opacity="1"
     id="g16"
     transform="translate(-14.142375,-13.088125)">
    <use
       xlink:href="#glyph-0-1"
       x="19.799999"
       y="36.097"
       id="use16" />
  </g>
  <path
     fill="none"
     stroke-width="0.89664"
     stroke-linecap="butt"
     stroke-linejoin="miter"
     stroke="#ffffff"
     stroke-opacity="1"
     stroke-miterlimit="10"
     d="M 24.865438,29.017344 13.330281,22.357188"
     id="path17" />
  <g
     fill="#ffffff"
     fill-opacity="1"
     id="g17"
     transform="translate(-14.142375,-13.088125)">
    <use
       xlink:href="#glyph-0-2"
       x="13.283"
       y="36.097"
       id="use17" />
  </g>
  <path
     fill="none"
     stroke-width="0.89664"
     stroke-linecap="butt"
     stroke-linejoin="miter"
     stroke="#ffffff"
     stroke-opacity="1"
     stroke-miterlimit="10"
     d="M 24.865438,29.017344 V 45.607187"
     id="path18" />
</svg>
