<?xml version="1.0" encoding="UTF-8" standalone="no"?>
<svg
   width="173.86546pt"
   height="84.509781pt"
   viewBox="0 0 173.86546 84.509779"
   version="1.1"
   id="svg29"
   sodipodi:docname="org112.svg"
   inkscape:version="1.4.3 (0d15f75, 2025-12-25)"
   xmlns:inkscape="http://www.inkscape.org/namespaces/inkscape"
   xmlns:sodipodi="http://sodipodi.sourceforge.net/DTD/sodipodi-0.dtd"
   xmlns:xlink="http://www.w3.org/1999/xlink"
   xmlns="http://www.w3.org/2000/svg"
   xmlns:svg="http://www.w3.org/2000/svg">
  <sodipodi:namedview
     id="namedview29"
     pagecolor="#ffffff"
     bordercolor="#666666"
     borderopacity="1.0"
     inkscape:showpageshadow="2"
     inkscape:pageopacity="0.0"
     inkscape:pagecheckerboard="0"
     inkscape:deskcolor="#d1d1d1"
     inkscape:document-units="pt"
     inkscape:zoom="2.47"
     inkscape:cx="30.161943"
     inkscape:cy="56.072874"
     inkscape:window-width="1920"
     inkscape:window-height="1001"
     inkscape:window-x="-9"
     inkscape:window-y="-9"
     inkscape:window-maximized="1"
     inkscape:current-layer="svg29" />
  <defs
     id="defs4">
    <g
       id="g4">
      <g
         id="glyph-0-0">
        <path
           d="m 5.359375,-1.0625 c -0.53125,0.40625 -1.03125,0.546875 -1.765625,0.546875 -1.34375,0 -2.140625,-1.375 -2.140625,-2.578125 0,-1.328125 0.828125,-2.625 2.140625,-2.625 0.609375,0 1.15625,0.171875 1.59375,0.484375 l 0.140625,-0.78125 c -0.46875,-0.203125 -1.046875,-0.3125 -1.671875,-0.3125 -1.765625,0 -3.0625,1.453125 -3.0625,3.21875 0,1.703125 1.25,3.203125 3.0625,3.203125 0.828125,0 1.15625,-0.125 1.765625,-0.5 z m 0,0"
           id="path1" />
      </g>
      <g
         id="glyph-0-1">
        <path
           d="m 6.28125,-3.078125 c 0,-1.90625 -1.328125,-3.34375 -2.875,-3.34375 -1.5625,0 -2.890625,1.4375 -2.890625,3.34375 0,1.859375 1.34375,3.28125 2.890625,3.28125 1.546875,0 2.875,-1.421875 2.875,-3.28125 z m -2.875,2.640625 c -1.078125,0 -2.03125,-1.09375 -2.03125,-2.78125 0,-1.640625 1,-2.59375 2.03125,-2.59375 1.015625,0 2.015625,0.953125 2.015625,2.59375 0,1.6875 -0.953125,2.78125 -2.015625,2.78125 z m 0,0"
           id="path2" />
      </g>
      <g
         id="glyph-1-0">
        <path
           d="m 5.09375,-9.578125 c 0,-0.28125 0,-0.6875 -0.640625,-0.6875 -0.28125,0 -0.34375,0.03125 -0.515625,0.203125 -0.25,0.21875 -0.796875,0.75 -2.21875,0.78125 -0.25,0 -0.625,0.09375 -0.625,0.515625 0,0.515625 0.5,0.515625 0.6875,0.515625 0.421875,0 0.9375,-0.0625 1.34375,-0.1875 v 7.40625 H 2.015625 c -0.1875,0 -0.703125,0 -0.703125,0.515625 C 1.3125,0 1.828125,0 2.015625,0 H 6.09375 C 6.25,0 6.78125,0 6.78125,-0.515625 6.78125,-1.03125 6.25,-1.03125 6.09375,-1.03125 h -1 z m 0,0"
           id="path3" />
      </g>
      <g
         id="glyph-1-1">
        <path
           d="M 0.9375,-1.21875 C 0.78125,-1.078125 0.78125,-1.046875 0.78125,-0.796875 V -0.6875 C 0.78125,-0.171875 0.953125,0 1.484375,0 h 4.90625 c 0.546875,0 0.6875,-0.1875 0.6875,-0.6875 v -0.171875 c 0,-0.234375 0,-0.5 -0.296875,-0.625 -0.09375,-0.0625 -0.5625,-0.0625 -0.84375,-0.0625 -0.3125,0 -0.65625,0.015625 -0.96875,0.015625 H 2.640625 L 4.53125,-3.328125 c 0.21875,-0.1875 0.765625,-0.625 0.984375,-0.828125 0.78125,-0.78125 1.5625,-1.53125 1.5625,-2.8125 0,-1.75 -1.25,-3.296875 -3.359375,-3.296875 -0.5,0 -1.328125,0.0625 -2.015625,0.625 -0.125,0.109375 -0.78125,0.625 -1.046875,1.578125 L 1.375,-7.140625 c 0.09375,0.109375 0.125,0.171875 0.234375,0.171875 0.125,0 0.15625,-0.109375 0.203125,-0.28125 0.28125,-0.984375 0.765625,-1.578125 1.6875,-1.578125 1.125,0 1.578125,1.015625 1.578125,1.890625 0,0.90625 -0.546875,1.875 -1.40625,2.796875 z m 0,0"
           id="path4" />
      </g>
    </g>
  </defs>
  <path
     fill-rule="nonzero"
     fill="#000000"
     fill-opacity="1"
     d="m -121.68296,97.794503 h 309.05859 v -111.13672 h -309.05859 z m 0,0"
     id="path5"
     sodipodi:insensitive="true" />
  <path
     fill="none"
     stroke-width="0.3985"
     stroke-linecap="butt"
     stroke-linejoin="miter"
     stroke="#ffffff"
     stroke-opacity="1"
     stroke-miterlimit="10"
     d="m 25.58894,45.177314 c 0,-5.953125 -4.82422,-10.777343 -10.77343,-10.777343 -5.95313,0 -10.77735,4.824218 -10.77735,10.777343 0,5.949219 4.82422,10.773438 10.77735,10.773438 5.94921,0 10.77343,-4.824219 10.77343,-10.773438"
     id="path6" />
  <path
     fill="none"
     stroke-width="0.89664"
     stroke-linecap="butt"
     stroke-linejoin="miter"
     stroke="#ffffff"
     stroke-opacity="1"
     stroke-miterlimit="10"
     d="m 0.44832,53.470283 14.36719,8.292969"
     id="path7" />
  <path
     fill="none"
     stroke-width="0.89664"
     stroke-linecap="butt"
     stroke-linejoin="miter"
     stroke="#ffffff"
     stroke-opacity="1"
     stroke-miterlimit="10"
     d="M 14.81551,61.763252 29.17879,53.470283"
     id="path8" />
  <path
     fill="none"
     stroke-width="0.89664"
     stroke-linecap="butt"
     stroke-linejoin="miter"
     stroke="#ffffff"
     stroke-opacity="1"
     stroke-miterlimit="10"
     d="M 29.17879,53.470283 V 36.880439"
     id="path9" />
  <g
     fill="#ffffff"
     fill-opacity="1"
     id="g9"
     transform="translate(-13.28215,-13.342217)">
    <use
       xlink:href="#glyph-0-0"
       x="55.32"
       y="44.215"
       id="use9" />
  </g>
  <path
     fill="none"
     stroke-width="0.89664"
     stroke-linecap="butt"
     stroke-linejoin="miter"
     stroke="#ffffff"
     stroke-opacity="1"
     stroke-miterlimit="10"
     d="M 29.17879,36.880439 41.17488,29.954658"
     id="path10" />
  <g
     fill="#ffffff"
     fill-opacity="1"
     id="g10"
     transform="translate(-13.28215,-13.342217)">
    <use
       xlink:href="#glyph-0-1"
       x="69.225998"
       y="52.507999"
       id="use10" />
  </g>
  <path
     fill="none"
     stroke-width="0.89664"
     stroke-linecap="butt"
     stroke-linejoin="miter"
     stroke="#ffffff"
     stroke-opacity="1"
     stroke-miterlimit="10"
     d="m 49.53426,28.661689 6.29296,3.632813"
     id="path11" />
  <path
     fill="none"
     stroke-width="0.89664"
     stroke-linecap="butt"
     stroke-linejoin="miter"
     stroke="#ffffff"
     stroke-opacity="1"
     stroke-miterlimit="10"
     d="m 48.04207,31.251533 6.29297,3.632813"
     id="path12" />
  <g
     fill="#ffffff"
     fill-opacity="1"
     id="g12"
     transform="translate(-13.28215,-13.342217)">
    <use
       xlink:href="#glyph-0-1"
       x="54.860001"
       y="25.968"
       id="use12" />
  </g>
  <path
     fill="none"
     stroke-width="0.89664"
     stroke-linecap="butt"
     stroke-linejoin="miter"
     stroke="#ffffff"
     stroke-opacity="1"
     stroke-miterlimit="10"
     d="M 44.98347,23.649971 V 13.622627"
     id="path13" />
  <path
     fill="none"
     stroke-width="0.89664"
     stroke-linecap="butt"
     stroke-linejoin="miter"
     stroke="#ffffff"
     stroke-opacity="1"
     stroke-miterlimit="10"
     d="M 49.2491,7.0484077 60.78426,0.38825173"
     id="path14" />
  <path
     fill="none"
     stroke-width="0.89664"
     stroke-linecap="butt"
     stroke-linejoin="miter"
     stroke="#ffffff"
     stroke-opacity="1"
     stroke-miterlimit="10"
     d="M 29.17879,36.880439 14.81551,28.587471"
     id="path15" />
  <path
     fill="none"
     stroke-width="0.89664"
     stroke-linecap="butt"
     stroke-linejoin="miter"
     stroke="#ffffff"
     stroke-opacity="1"
     stroke-miterlimit="10"
     d="M 14.81551,28.587471 0.44832,36.880439"
     id="path16" />
  <path
     fill="none"
     stroke-width="0.89664"
     stroke-linecap="butt"
     stroke-linejoin="miter"
     stroke="#ffffff"
     stroke-opacity="1"
     stroke-miterlimit="10"
     d="M 0.44832,36.880439 V 53.470283"
     id="path17" />
  <g
     fill="#ffffff"
     fill-opacity="1"
     id="g17"
     transform="translate(-13.28215,-13.342217)">
    <use
       xlink:href="#glyph-1-0"
       x="40.713001"
       y="97.851997"
       id="use17" />
  </g>
  <path
     fill="none"
     stroke-width="0.3985"
     stroke-linecap="butt"
     stroke-linejoin="miter"
     stroke="#ffffff"
     stroke-opacity="1"
     stroke-miterlimit="10"
     d="m 122.64517,32.825752 c 0,-5.953125 -4.82422,-10.777344 -10.77344,-10.777344 -5.95313,0 -10.77735,4.824219 -10.77735,10.777344 0,5.949219 4.82422,10.773437 10.77735,10.773437 5.94922,0 10.77344,-4.824218 10.77344,-10.773437"
     id="path18" />
  <path
     fill="none"
     stroke-width="0.89664"
     stroke-linecap="butt"
     stroke-linejoin="miter"
     stroke="#ffffff"
     stroke-opacity="1"
     stroke-miterlimit="10"
     d="m 97.50454,41.11872 14.36719,8.292969"
     id="path19" />
  <path
     fill="none"
     stroke-width="0.89664"
     stroke-linecap="butt"
     stroke-linejoin="miter"
     stroke="#ffffff"
     stroke-opacity="1"
     stroke-miterlimit="10"
     d="M 111.87173,49.411689 126.23501,41.11872"
     id="path20" />
  <path
     fill="none"
     stroke-width="0.89664"
     stroke-linecap="butt"
     stroke-linejoin="miter"
     stroke="#ffffff"
     stroke-opacity="1"
     stroke-miterlimit="10"
     d="M 126.23501,41.11872 V 24.528877"
     id="path21" />
  <g
     fill="#ffffff"
     fill-opacity="1"
     id="g21"
     transform="translate(-121.68296,-13.342217)">
    <use
       xlink:href="#glyph-0-1"
       x="260.31699"
       y="31.862"
       id="use21" />
  </g>
  <path
     fill="none"
     stroke-width="0.89664"
     stroke-linecap="butt"
     stroke-linejoin="miter"
     stroke="#ffffff"
     stroke-opacity="1"
     stroke-miterlimit="10"
     d="m 126.23501,24.528877 11.53516,-6.660156"
     id="path22" />
  <g
     fill="#ffffff"
     fill-opacity="1"
     id="g22"
     transform="translate(-121.68296,-13.342217)">
    <use
       xlink:href="#glyph-0-0"
       x="276.57901"
       y="40.986"
       id="use22" />
  </g>
  <path
     fill="none"
     stroke-width="0.89664"
     stroke-linecap="butt"
     stroke-linejoin="miter"
     stroke="#ffffff"
     stroke-opacity="1"
     stroke-miterlimit="10"
     d="m 146.30532,17.868721 7.73047,4.464843"
     id="path23" />
  <g
     fill="#ffffff"
     fill-opacity="1"
     id="g23"
     transform="translate(-121.68296,-13.342217)">
    <use
       xlink:href="#glyph-0-1"
       x="276.11899"
       y="57.573002"
       id="use23" />
  </g>
  <path
     fill="none"
     stroke-width="0.89664"
     stroke-linecap="butt"
     stroke-linejoin="miter"
     stroke="#ffffff"
     stroke-opacity="1"
     stroke-miterlimit="10"
     d="m 159.33657,28.638252 v 8.371094"
     id="path24" />
  <path
     fill="none"
     stroke-width="0.89664"
     stroke-linecap="butt"
     stroke-linejoin="miter"
     stroke="#ffffff"
     stroke-opacity="1"
     stroke-miterlimit="10"
     d="m 156.34438,28.638252 v 8.371094"
     id="path25" />
  <path
     fill="none"
     stroke-width="0.89664"
     stroke-linecap="butt"
     stroke-linejoin="miter"
     stroke="#ffffff"
     stroke-opacity="1"
     stroke-miterlimit="10"
     d="m 161.64907,22.333564 11.99219,-6.925781"
     id="path26" />
  <path
     fill="none"
     stroke-width="0.89664"
     stroke-linecap="butt"
     stroke-linejoin="miter"
     stroke="#ffffff"
     stroke-opacity="1"
     stroke-miterlimit="10"
     d="M 126.23501,24.528877 111.87173,16.235908"
     id="path27" />
  <path
     fill="none"
     stroke-width="0.89664"
     stroke-linecap="butt"
     stroke-linejoin="miter"
     stroke="#ffffff"
     stroke-opacity="1"
     stroke-miterlimit="10"
     d="M 111.87173,16.235908 97.50454,24.528877"
     id="path28" />
  <path
     fill="none"
     stroke-width="0.89664"
     stroke-linecap="butt"
     stroke-linejoin="miter"
     stroke="#ffffff"
     stroke-opacity="1"
     stroke-miterlimit="10"
     d="M 97.50454,24.528877 V 41.11872"
     id="path29" />
  <g
     fill="#ffffff"
     fill-opacity="1"
     id="g29"
     transform="translate(-121.68296,-0.98922027)">
    <use
       xlink:href="#glyph-1-1"
       x="253.311"
       y="85.499001"
       id="use29" />
  </g>
</svg>
