<?xml version="1.0" encoding="UTF-8" standalone="no"?>
<svg
   width="210.68977pt"
   height="54.288433pt"
   viewBox="0 0 210.68977 54.288433"
   version="1.1"
   id="svg71"
   sodipodi:docname="org241.svg"
   inkscape:version="1.4.3 (0d15f75, 2025-12-25)"
   xmlns:inkscape="http://www.inkscape.org/namespaces/inkscape"
   xmlns:sodipodi="http://sodipodi.sourceforge.net/DTD/sodipodi-0.dtd"
   xmlns:xlink="http://www.w3.org/1999/xlink"
   xmlns="http://www.w3.org/2000/svg"
   xmlns:svg="http://www.w3.org/2000/svg">
  <sodipodi:namedview
     id="namedview71"
     pagecolor="#ffffff"
     bordercolor="#666666"
     borderopacity="1.0"
     inkscape:showpageshadow="2"
     inkscape:pageopacity="0.0"
     inkscape:pagecheckerboard="0"
     inkscape:deskcolor="#d1d1d1"
     inkscape:document-units="pt"
     inkscape:zoom="2.11"
     inkscape:cx="107.81991"
     inkscape:cy="36.255924"
     inkscape:window-width="1920"
     inkscape:window-height="1001"
     inkscape:window-x="-9"
     inkscape:window-y="-9"
     inkscape:window-maximized="1"
     inkscape:current-layer="svg71" />
  <defs
     id="defs24">
    <g
       id="g23">
      <g
         id="glyph-0-0">
        <path
           d="m 5.359375,-1.0625 c -0.53125,0.40625 -1.03125,0.546875 -1.765625,0.546875 -1.34375,0 -2.140625,-1.375 -2.140625,-2.578125 0,-1.328125 0.828125,-2.625 2.140625,-2.625 0.609375,0 1.15625,0.171875 1.59375,0.484375 l 0.140625,-0.78125 c -0.46875,-0.203125 -1.046875,-0.3125 -1.671875,-0.3125 -1.765625,0 -3.0625,1.453125 -3.0625,3.21875 0,1.703125 1.25,3.203125 3.0625,3.203125 0.828125,0 1.15625,-0.125 1.765625,-0.5 z m 0,0"
           id="path1" />
      </g>
      <g
         id="glyph-0-1">
        <path
           d="m 6.28125,-3.078125 c 0,-1.90625 -1.328125,-3.34375 -2.875,-3.34375 -1.5625,0 -2.890625,1.4375 -2.890625,3.34375 0,1.859375 1.34375,3.28125 2.890625,3.28125 1.546875,0 2.875,-1.421875 2.875,-3.28125 z m -2.875,2.640625 c -1.078125,0 -2.03125,-1.09375 -2.03125,-2.78125 0,-1.640625 1,-2.59375 2.03125,-2.59375 1.015625,0 2.015625,0.953125 2.015625,2.59375 0,1.6875 -0.953125,2.78125 -2.015625,2.78125 z m 0,0"
           id="path2" />
      </g>
      <g
         id="glyph-0-2">
        <path
           d="M 5.65625,-6.21875 H 4.796875 v 2.6875 H 1.71875 v -2.6875 H 0.859375 V 0 H 1.71875 V -2.9375 H 4.796875 V 0 H 5.65625 Z m 0,0"
           id="path3" />
      </g>
      <g
         id="glyph-0-3">
        <path
           d="M 1.453125,-6.21875 H 0.734375 V 0 h 0.71875 z m 0,0"
           id="path4" />
      </g>
      <g
         id="glyph-1-0">
        <path
           d="m 2.28125,-2.5625 h 1.453125 c 1.390625,0 2.609375,-1.0625 2.609375,-2.15625 0,-0.84375 -0.71875,-1.5 -1.828125,-1.5 h -2.3125 L 0.875,0 h 0.859375 z m 0.640625,-3.125 H 4.1875 c 0.90625,0 1.375,0.4375 1.375,1.03125 0,0.671875 -0.625,1.546875 -1.921875,1.546875 H 2.375 Z m 0,0"
           id="path5" />
      </g>
      <g
         id="glyph-1-1">
        <path
           d="m 6.59375,-6.015625 c -0.5,-0.203125 -1.046875,-0.3125 -1.59375,-0.3125 -2.046875,0 -3.8125,1.9375 -3.8125,3.9375 0,1.34375 0.921875,2.484375 2.3125,2.484375 0.9375,0 1.1875,-0.09375 2,-0.5 0.046875,-0.21875 0.0625,-0.4375 0.09375,-0.65625 -0.734375,0.453125 -1.21875,0.546875 -1.875,0.546875 -1.078125,0 -1.671875,-0.921875 -1.671875,-1.9375 0,-1.703125 1.390625,-3.265625 2.75,-3.265625 0.59375,0 1.0625,0.140625 1.5,0.484375 z m 0,0"
           id="path6" />
      </g>
      <g
         id="glyph-1-2">
        <path
           d="M 2.78125,-6.21875 H 2.0625 L 0.734375,0 h 0.71875 z m 0,0"
           id="path7" />
      </g>
      <g
         id="glyph-2-0">
        <path
           d="m 0.984375,-3.515625 h 1.65625 v -0.40625 H 0.5 V -1.6875 h 0.4375 c 0.140625,-0.328125 0.421875,-0.46875 0.703125,-0.46875 0.234375,0 0.609375,0.171875 0.609375,0.921875 0,0.796875 -0.5,0.96875 -0.796875,0.96875 -0.40625,0 -0.78125,-0.21875 -0.984375,-0.546875 L 0.234375,-0.453125 C 0.53125,-0.09375 0.96875,0.125 1.453125,0.125 c 0.78125,0 1.40625,-0.609375 1.40625,-1.34375 0,-0.734375 -0.5625,-1.328125 -1.21875,-1.328125 -0.25,0 -0.484375,0.09375 -0.65625,0.234375 z m 0,0"
           id="path8" />
      </g>
      <g
         id="glyph-3-0">
        <path
           d="M 3.203125,-5.53125 H 2.4375 L 0.234375,0 h 0.65625 l 0.625,-1.578125 H 3.9375 L 4.5625,0 h 0.828125 z m -0.46875,0.609375 1,2.875 H 1.71875 Z m 0,0"
           id="path9" />
      </g>
      <g
         id="glyph-3-1">
        <path
           d="m 3.46875,-0.875 c -0.40625,0.265625 -0.828125,0.40625 -1.328125,0.40625 -0.734375,0 -1.15625,-0.59375 -1.15625,-1.3125 0,-0.609375 0.3125,-1.328125 1.1875,-1.328125 0.53125,0 0.796875,0.109375 1.203125,0.375 L 3.46875,-3.3125 C 3,-3.546875 2.78125,-3.65625 2.171875,-3.65625 c -1.203125,0 -1.890625,0.96875 -1.890625,1.890625 0,0.96875 0.765625,1.84375 1.859375,1.84375 0.546875,0 1.03125,-0.171875 1.375,-0.359375 z m 0,0"
           id="path10" />
      </g>
      <g
         id="glyph-3-2">
        <path
           d="M 3.78125,-3.53125 H 3.125 C 2.484375,-2.015625 2.046875,-0.984375 2.015625,-0.5 c -0.03125,-0.21875 -0.171875,-0.625 -0.3125,-1 -0.125,-0.3125 -0.25,-0.640625 -0.390625,-0.953125 l -0.5,-1.078125 H 0.125 L 1.765625,0 c -0.09375,0.234375 -0.25,0.59375 -0.296875,0.703125 -0.171875,0.328125 -0.28125,0.4375 -0.5,0.4375 -0.03125,0 -0.328125,0 -0.671875,-0.140625 L 0.34375,1.5625 c 0.078125,0.015625 0.375,0.0625 0.625,0.0625 0.3125,0 0.59375,-0.125 0.9375,-0.890625 z m 0,0"
           id="path11" />
      </g>
      <g
         id="glyph-3-3">
        <path
           d="M 1.34375,-5.53125 H 0.671875 V 0 H 1.34375 Z m 0,0"
           id="path12" />
      </g>
      <g
         id="glyph-3-4">
        <path
           d="m 5.203125,-5.53125 h -0.8125 v 2.390625 h -2.8125 V -5.53125 h -0.8125 V 0 h 0.8125 v -2.609375 h 2.8125 V 0 h 0.8125 z m 0,0"
           id="path13" />
      </g>
      <g
         id="glyph-3-5">
        <path
           d="m 3.390625,-2.296875 c 0,-0.8125 -0.625,-1.359375 -1.40625,-1.359375 -0.5,0 -0.890625,0.109375 -1.328125,0.34375 l 0.046875,0.578125 c 0.265625,-0.171875 0.65625,-0.40625 1.28125,-0.40625 0.34375,0 0.71875,0.25 0.71875,0.859375 v 0.3125 c -1.1875,0.046875 -2.34375,0.28125 -2.34375,1.03125 0,0.390625 0.265625,1.015625 0.96875,1.015625 0.34375,0 0.96875,-0.0625 1.390625,-0.375 V 0 H 3.390625 Z M 2.703125,-1.125 c 0,0.15625 0,0.359375 -0.28125,0.53125 -0.25,0.140625 -0.5625,0.140625 -0.65625,0.140625 -0.4375,0 -0.765625,-0.1875 -0.765625,-0.5 0,-0.5 1.34375,-0.546875 1.703125,-0.5625 z m 0,0"
           id="path14" />
      </g>
      <g
         id="glyph-3-6">
        <path
           d="m 1.40625,-5.46875 h -0.8125 v 0.8125 h 0.8125 z m -0.0625,1.9375 H 0.671875 V 0 H 1.34375 Z m 0,0"
           id="path15" />
      </g>
      <g
         id="glyph-3-7">
        <path
           d="M 3.6875,-5.53125 H 3.015625 v 2.328125 c -0.5,-0.359375 -1.03125,-0.421875 -1.25,-0.421875 -0.84375,0 -1.484375,0.84375 -1.484375,1.859375 0,1.015625 0.640625,1.84375 1.453125,1.84375 0.5,0 0.953125,-0.21875 1.265625,-0.5 V 0 H 3.6875 Z M 3,-0.984375 c -0.203125,0.328125 -0.5,0.53125 -0.890625,0.53125 -0.5625,0 -1.125,-0.390625 -1.125,-1.3125 0,-0.984375 0.671875,-1.328125 1.21875,-1.328125 0.3125,0 0.578125,0.140625 0.796875,0.40625 z m 0,0"
           id="path16" />
      </g>
      <g
         id="glyph-3-8">
        <path
           d="m 3.421875,-0.875 c -0.4375,0.328125 -0.9375,0.421875 -1.28125,0.421875 -0.703125,0 -1.21875,-0.5625 -1.25,-1.296875 H 3.5 C 3.5,-2.109375 3.46875,-2.640625 3.15625,-3.09375 2.875,-3.5 2.390625,-3.65625 2,-3.65625 c -0.96875,0 -1.71875,0.84375 -1.71875,1.859375 0,1.03125 0.796875,1.875 1.84375,1.875 0.46875,0 0.9375,-0.140625 1.34375,-0.375 z M 0.953125,-2.21875 C 1.125,-2.859375 1.609375,-3.125 2,-3.125 c 0.34375,0 0.875,0.15625 1.015625,0.90625 z m 0,0"
           id="path17" />
      </g>
      <g
         id="glyph-3-9">
        <path
           d="M 4.125,-2.5 V -3.015625 H 1.578125 v -1.9375 H 2.6875 c 0.09375,0 0.1875,0 0.28125,0 H 4.484375 V -5.5 H 0.765625 V 0 h 0.8125 v -2.5 z m 0,0"
           id="path18" />
      </g>
      <g
         id="glyph-3-10">
        <path
           d="m 3.984375,-1.75 c 0,-1.046875 -0.84375,-1.90625 -1.875,-1.90625 -1.03125,0 -1.875,0.875 -1.875,1.90625 0,1.015625 0.84375,1.828125 1.875,1.828125 1.03125,0 1.875,-0.8125 1.875,-1.828125 z m -1.875,1.28125 c -0.625,0 -1.171875,-0.46875 -1.171875,-1.359375 0,-0.90625 0.578125,-1.296875 1.171875,-1.296875 0.59375,0 1.1875,0.40625 1.1875,1.296875 0,0.90625 -0.578125,1.359375 -1.1875,1.359375 z m 0,0"
           id="path19" />
      </g>
      <g
         id="glyph-3-11">
        <path
           d="m 1.34375,-1.703125 c 0,-0.859375 0.71875,-1.3125 1.421875,-1.328125 V -3.625 c -0.671875,0.015625 -1.15625,0.34375 -1.46875,0.765625 V -3.59375 h -0.625 V 0 H 1.34375 Z m 0,0"
           id="path20" />
      </g>
      <g
         id="glyph-3-12">
        <path
           d="M 6.0625,-2.359375 C 6.0625,-2.984375 5.875,-3.625 4.890625,-3.625 4.21875,-3.625 3.8125,-3.234375 3.625,-2.96875 3.53125,-3.1875 3.34375,-3.625 2.546875,-3.625 c -0.453125,0 -0.890625,0.1875 -1.25,0.609375 V -3.59375 H 0.65625 V 0 h 0.703125 v -1.9375 c 0,-0.53125 0.21875,-1.15625 0.828125,-1.15625 0.828125,0 0.828125,0.5625 0.828125,0.796875 V 0 h 0.6875 v -1.9375 c 0,-0.53125 0.21875,-1.15625 0.84375,-1.15625 0.8125,0 0.8125,0.5625 0.8125,0.796875 V 0 H 6.0625 Z m 0,0"
           id="path21" />
      </g>
      <g
         id="glyph-3-13">
        <path
           d="m 1.5,-3.03125 h 1.171875 v -0.5 H 1.5 V -4.546875 H 0.890625 V -3.53125 H 0.15625 v 0.5 h 0.703125 v 2.015625 c 0,0.53125 0.140625,1.09375 0.703125,1.09375 0.578125,0 1.015625,-0.1875 1.265625,-0.296875 l -0.140625,-0.5 c -0.265625,0.1875 -0.546875,0.25 -0.765625,0.25 C 1.578125,-0.46875 1.5,-0.796875 1.5,-1.15625 Z m 0,0"
           id="path22" />
      </g>
      <g
         id="glyph-3-14">
        <path
           d="m 3.703125,-2.359375 c 0,-0.625 -0.1875,-1.265625 -1.15625,-1.265625 -0.453125,0 -0.890625,0.1875 -1.25,0.609375 V -3.59375 H 0.65625 V 0 h 0.703125 v -1.9375 c 0,-0.53125 0.21875,-1.15625 0.828125,-1.15625 0.828125,0 0.828125,0.5625 0.828125,0.796875 V 0 h 0.6875 z m 0,0"
           id="path23" />
      </g>
    </g>
    <clipPath
       id="clip-0">
      <path
         clip-rule="nonzero"
         d="M 0,0 H 294.39062 V 80.722656 H 0 Z m 0,0"
         id="path24" />
    </clipPath>
  </defs>
  <g
     clip-path="url(#clip-0)"
     id="g25"
     sodipodi:insensitive="true"
     transform="translate(-66.599684,-13.088125)">
    <path
       fill-rule="nonzero"
       fill="#000000"
       fill-opacity="1"
       d="M 0,80.722656 H 294.39062 V 0 H 0 Z m 0,0"
       id="path25" />
  </g>
  <path
     fill="none"
     stroke-width="0.3985"
     stroke-linecap="butt"
     stroke-linejoin="miter"
     stroke="#ffffff"
     stroke-opacity="1"
     stroke-miterlimit="10"
     d="m 25.588946,37.314219 c 0,-5.949219 -4.824219,-10.773438 -10.773438,-10.773438 -5.953125,0 -10.777343,4.824219 -10.777343,10.773438 0,5.949218 4.824218,10.773437 10.777343,10.773437 5.949219,0 10.773438,-4.824219 10.773438,-10.773437"
     id="path26" />
  <path
     fill="none"
     stroke-width="0.89664"
     stroke-linecap="butt"
     stroke-linejoin="miter"
     stroke="#ffffff"
     stroke-opacity="1"
     stroke-miterlimit="10"
     d="m 0.44832,45.607187 14.367188,8.292969"
     id="path27" />
  <path
     fill="none"
     stroke-width="0.89664"
     stroke-linecap="butt"
     stroke-linejoin="miter"
     stroke="#ffffff"
     stroke-opacity="1"
     stroke-miterlimit="10"
     d="M 14.815508,53.900156 29.17879,45.607187"
     id="path28" />
  <path
     fill="none"
     stroke-width="0.89664"
     stroke-linecap="butt"
     stroke-linejoin="miter"
     stroke="#ffffff"
     stroke-opacity="1"
     stroke-miterlimit="10"
     d="M 29.17879,45.607187 V 29.02125"
     id="path29" />
  <g
     fill="#ffffff"
     fill-opacity="1"
     id="g29"
     transform="translate(-13.282148,-13.088125)">
    <use
       xlink:href="#glyph-0-0"
       x="55.32"
       y="36.098"
       id="use29" />
  </g>
  <path
     fill="none"
     stroke-width="0.89664"
     stroke-linecap="butt"
     stroke-linejoin="miter"
     stroke="#ffffff"
     stroke-opacity="1"
     stroke-miterlimit="10"
     d="M 29.17879,29.02125 41.174886,22.095469"
     id="path30" />
  <g
     fill="#ffffff"
     fill-opacity="1"
     id="g30"
     transform="translate(-13.282148,-13.088125)">
    <use
       xlink:href="#glyph-0-1"
       x="54.860001"
       y="19.51"
       id="use30" />
  </g>
  <path
     fill="none"
     stroke-width="0.89664"
     stroke-linecap="butt"
     stroke-linejoin="miter"
     stroke="#ffffff"
     stroke-opacity="1"
     stroke-miterlimit="10"
     d="M 43.487386,15.786875 V 7.4196868"
     id="path31" />
  <path
     fill="none"
     stroke-width="0.89664"
     stroke-linecap="butt"
     stroke-linejoin="miter"
     stroke="#ffffff"
     stroke-opacity="1"
     stroke-miterlimit="10"
     d="M 46.475666,15.786875 V 7.4196868"
     id="path32" />
  <g
     fill="#ffffff"
     fill-opacity="1"
     id="g32"
     transform="translate(-13.282148,-13.088125)">
    <use
       xlink:href="#glyph-0-1"
       x="69.225998"
       y="44.391998"
       id="use32" />
  </g>
  <g
     fill="#ffffff"
     fill-opacity="1"
     id="g33"
     transform="translate(-13.282148,-13.088125)">
    <use
       xlink:href="#glyph-0-2"
       x="76.032997"
       y="44.391998"
       id="use33" />
  </g>
  <path
     fill="none"
     stroke-width="0.89664"
     stroke-linecap="butt"
     stroke-linejoin="miter"
     stroke="#ffffff"
     stroke-opacity="1"
     stroke-miterlimit="10"
     d="m 48.788166,22.095469 6.29297,3.632812"
     id="path33" />
  <path
     fill="none"
     stroke-width="0.89664"
     stroke-linecap="butt"
     stroke-linejoin="miter"
     stroke="#ffffff"
     stroke-opacity="1"
     stroke-miterlimit="10"
     d="M 29.17879,29.02125 14.815508,20.724375"
     id="path34" />
  <path
     fill="none"
     stroke-width="0.89664"
     stroke-linecap="butt"
     stroke-linejoin="miter"
     stroke="#ffffff"
     stroke-opacity="1"
     stroke-miterlimit="10"
     d="M 14.815508,20.724375 0.44832,29.02125"
     id="path35" />
  <path
     fill="none"
     stroke-width="0.89664"
     stroke-linecap="butt"
     stroke-linejoin="miter"
     stroke="#ffffff"
     stroke-opacity="1"
     stroke-miterlimit="10"
     d="M 0.44832,29.02125 V 45.607187"
     id="path36" />
  <g
     id="g71"
     transform="translate(-66.599684,-13.088125)">
    <path
       fill="none"
       stroke-width="0.3985"
       stroke-linecap="butt"
       stroke-linejoin="miter"
       stroke="#ffffff"
       stroke-opacity="1"
       stroke-miterlimit="10"
       d="m 25.139375,8.293656 c 0,5.949219 -4.824219,10.773438 -10.773437,10.773438 -5.949219,0 -10.773438,-4.824219 -10.773438,-10.773438 0,-5.949218 4.824219,-10.773437 10.773438,-10.773437 5.949218,0 10.773437,4.824219 10.773437,10.773437"
       transform="matrix(1,0,0,-1,215.095,58.696)"
       id="path37" />
    <path
       fill="none"
       stroke-width="0.89664"
       stroke-linecap="butt"
       stroke-linejoin="miter"
       stroke="#ffffff"
       stroke-opacity="1"
       stroke-miterlimit="10"
       d="M -0.00125,6.875e-4 14.365938,-8.292281"
       transform="matrix(1,0,0,-1,215.095,58.696)"
       id="path38" />
    <path
       fill="none"
       stroke-width="0.89664"
       stroke-linecap="butt"
       stroke-linejoin="miter"
       stroke="#ffffff"
       stroke-opacity="1"
       stroke-miterlimit="10"
       d="M 14.365938,-8.292281 28.733125,6.875e-4"
       transform="matrix(1,0,0,-1,215.095,58.696)"
       id="path39" />
    <path
       fill="none"
       stroke-width="0.89664"
       stroke-linecap="butt"
       stroke-linejoin="miter"
       stroke="#ffffff"
       stroke-opacity="1"
       stroke-miterlimit="10"
       d="M 28.733125,6.875e-4 V 16.586625"
       transform="matrix(1,0,0,-1,215.095,58.696)"
       id="path40" />
    <g
       fill="#ffffff"
       fill-opacity="1"
       id="g40">
      <use
         xlink:href="#glyph-0-0"
         x="256.68399"
         y="36.098"
         id="use40" />
    </g>
    <path
       fill="none"
       stroke-width="0.89664"
       stroke-linecap="butt"
       stroke-linejoin="miter"
       stroke="#ffffff"
       stroke-opacity="1"
       stroke-miterlimit="10"
       d="m 28.733125,16.586625 11.992188,6.925781"
       transform="matrix(1,0,0,-1,215.095,58.696)"
       id="path41" />
    <g
       fill="#ffffff"
       fill-opacity="1"
       id="g41">
      <use
         xlink:href="#glyph-0-1"
         x="256.224"
         y="19.51"
         id="use41" />
    </g>
    <path
       fill="none"
       stroke-width="0.89664"
       stroke-linecap="butt"
       stroke-linejoin="miter"
       stroke="#ffffff"
       stroke-opacity="1"
       stroke-miterlimit="10"
       d="m 43.037813,29.821 v 8.367188"
       transform="matrix(1,0,0,-1,215.095,58.696)"
       id="path42" />
    <path
       fill="none"
       stroke-width="0.89664"
       stroke-linecap="butt"
       stroke-linejoin="miter"
       stroke="#ffffff"
       stroke-opacity="1"
       stroke-miterlimit="10"
       d="m 46.026094,29.821 v 8.367188"
       transform="matrix(1,0,0,-1,215.095,58.696)"
       id="path43" />
    <g
       fill="#ffffff"
       fill-opacity="1"
       id="g44">
      <use
         xlink:href="#glyph-0-0"
         x="269.94901"
         y="44.391998"
         id="use43" />
      <use
         xlink:href="#glyph-0-3"
         x="275.83633"
         y="44.391998"
         id="use44" />
    </g>
    <path
       fill="none"
       stroke-width="0.89664"
       stroke-linecap="butt"
       stroke-linejoin="miter"
       stroke="#ffffff"
       stroke-opacity="1"
       stroke-miterlimit="10"
       d="m 48.338594,23.512406 5.652344,-3.261718"
       transform="matrix(1,0,0,-1,215.095,58.696)"
       id="path44" />
    <path
       fill="none"
       stroke-width="0.89664"
       stroke-linecap="butt"
       stroke-linejoin="miter"
       stroke="#ffffff"
       stroke-opacity="1"
       stroke-miterlimit="10"
       d="M 28.733125,16.586625 14.365938,24.8835"
       transform="matrix(1,0,0,-1,215.095,58.696)"
       id="path45" />
    <path
       fill="none"
       stroke-width="0.89664"
       stroke-linecap="butt"
       stroke-linejoin="miter"
       stroke="#ffffff"
       stroke-opacity="1"
       stroke-miterlimit="10"
       d="M 14.365938,24.8835 -0.00125,16.586625"
       transform="matrix(1,0,0,-1,215.095,58.696)"
       id="path46" />
    <path
       fill="none"
       stroke-width="0.89664"
       stroke-linecap="butt"
       stroke-linejoin="miter"
       stroke="#ffffff"
       stroke-opacity="1"
       stroke-miterlimit="10"
       d="M -0.00125,16.586625 V 6.875e-4"
       transform="matrix(1,0,0,-1,215.095,58.696)"
       id="path47" />
  </g>
  <g
     id="g72"
     transform="translate(-66.599684,-13.217111)">
    <path
       fill="none"
       stroke-width="0.99628"
       stroke-linecap="butt"
       stroke-linejoin="miter"
       stroke="#ffffff"
       stroke-opacity="1"
       stroke-miterlimit="10"
       d="m 146.42815,40.359375 h 56.82966"
       id="path48" />
    <path
       fill-rule="nonzero"
       fill="#ffffff"
       fill-opacity="1"
       d="m 206.14844,40.359375 -4.625,-2.308594 1.73437,2.308594 -1.73437,2.3125"
       id="path49" />
  </g>
</svg>
