<?xml version="1.0" encoding="UTF-8" standalone="no"?>
<svg
   width="89.230103pt"
   height="55.855843pt"
   viewBox="0 0 89.230101 55.855844"
   version="1.1"
   id="svg23"
   sodipodi:docname="org29.svg"
   inkscape:version="1.4.3 (0d15f75, 2025-12-25)"
   xmlns:inkscape="http://www.inkscape.org/namespaces/inkscape"
   xmlns:sodipodi="http://sodipodi.sourceforge.net/DTD/sodipodi-0.dtd"
   xmlns:xlink="http://www.w3.org/1999/xlink"
   xmlns="http://www.w3.org/2000/svg"
   xmlns:svg="http://www.w3.org/2000/svg">
  <sodipodi:namedview
     id="namedview23"
     pagecolor="#ffffff"
     bordercolor="#666666"
     borderopacity="1.0"
     inkscape:showpageshadow="2"
     inkscape:pageopacity="0.0"
     inkscape:pagecheckerboard="0"
     inkscape:deskcolor="#d1d1d1"
     inkscape:document-units="pt"
     inkscape:zoom="5.04"
     inkscape:cx="62.202381"
     inkscape:cy="37.202381"
     inkscape:window-width="1920"
     inkscape:window-height="1001"
     inkscape:window-x="-9"
     inkscape:window-y="-9"
     inkscape:window-maximized="1"
     inkscape:current-layer="svg23" />
  <defs
     id="defs6">
    <g
       id="g5">
      <g
         id="glyph-0-0">
        <path
           d="M 2.515625,-5.34375 C 2.453125,-5.484375 2.34375,-5.6875 2.296875,-5.765625 2.25,-5.859375 2.109375,-6.125 2.0625,-6.21875 H 0.875 V 0 H 1.609375 V -5.53125 H 1.625 l 2.359375,4.640625 C 4.0625,-0.75 4.171875,-0.53125 4.21875,-0.46875 4.265625,-0.359375 4.390625,-0.09375 4.453125,0 H 5.625 V -6.21875 H 4.890625 v 5.515625 z m 0,0"
           id="path1" />
      </g>
      <g
         id="glyph-0-1">
        <path
           d="m 5.359375,-1.0625 c -0.53125,0.40625 -1.03125,0.546875 -1.765625,0.546875 -1.34375,0 -2.140625,-1.375 -2.140625,-2.578125 0,-1.328125 0.828125,-2.625 2.140625,-2.625 0.609375,0 1.15625,0.171875 1.59375,0.484375 l 0.140625,-0.78125 c -0.46875,-0.203125 -1.046875,-0.3125 -1.671875,-0.3125 -1.765625,0 -3.0625,1.453125 -3.0625,3.21875 0,1.703125 1.25,3.203125 3.0625,3.203125 0.828125,0 1.15625,-0.125 1.765625,-0.5 z m 0,0"
           id="path2" />
      </g>
      <g
         id="glyph-0-2">
        <path
           d="M 5.65625,-6.21875 H 4.796875 v 2.6875 H 1.71875 v -2.6875 H 0.859375 V 0 H 1.71875 V -2.9375 H 4.796875 V 0 H 5.65625 Z m 0,0"
           id="path3" />
      </g>
      <g
         id="glyph-1-0">
        <path
           d="m 0.59375,-3.0625 c 0.25,-0.484375 0.6875,-0.625 0.96875,-0.625 0.359375,0 0.609375,0.203125 0.609375,0.546875 0,0.328125 -0.203125,0.71875 -0.65625,0.78125 C 1.484375,-2.34375 1.453125,-2.34375 1.0625,-2.3125 v 0.390625 h 0.46875 c 0.5625,0 0.765625,0.453125 0.765625,0.828125 0,0.46875 -0.28125,0.828125 -0.75,0.828125 -0.421875,0 -0.90625,-0.203125 -1.203125,-0.59375 L 0.265625,-0.46875 C 0.609375,-0.078125 1.09375,0.125 1.5625,0.125 c 0.78125,0 1.34375,-0.578125 1.34375,-1.21875 0,-0.484375 -0.390625,-0.875 -0.859375,-1.015625 C 2.5,-2.34375 2.734375,-2.75 2.734375,-3.140625 c 0,-0.5 -0.53125,-0.90625 -1.171875,-0.90625 -0.515625,0 -0.953125,0.265625 -1.203125,0.625 z m 0,0"
           id="path4" />
      </g>
      <g
         id="glyph-1-1">
        <path
           d="m 1.6875,-0.453125 c -0.0625,0 -0.140625,0 -0.203125,0 h -0.6875 L 1.71875,-1.28125 C 1.828125,-1.375 2.125,-1.59375 2.234375,-1.6875 c 0.265625,-0.234375 0.625,-0.546875 0.625,-1.078125 0,-0.671875 -0.5,-1.28125 -1.359375,-1.28125 -0.640625,0 -1.03125,0.34375 -1.234375,0.953125 L 0.546875,-2.75 c 0.140625,-0.5 0.34375,-0.890625 0.859375,-0.890625 0.515625,0 0.890625,0.359375 0.890625,0.890625 0,0.5 -0.296875,0.78125 -0.65625,1.125 -0.109375,0.109375 -0.4375,0.390625 -0.5625,0.5 C 0.90625,-0.96875 0.484375,-0.5625 0.3125,-0.40625 V 0 h 2.546875 v -0.453125 z m 0,0"
           id="path5" />
      </g>
    </g>
    <clipPath
       id="clip-0">
      <path
         clip-rule="nonzero"
         d="M 0,0 H 119.63672 V 82.378906 H 0 Z m 0,0"
         id="path6" />
    </clipPath>
  </defs>
  <g
     clip-path="url(#clip-0)"
     id="g7"
     transform="translate(-13.282149,-13.180876)">
    <path
       fill-rule="nonzero"
       fill="#000000"
       fill-opacity="1"
       d="M 0,82.378906 H 119.63672 V 0 H 0 Z m 0,0"
       id="path7" />
  </g>
  <path
     fill="none"
     stroke-width="0.3985"
     stroke-linecap="butt"
     stroke-linejoin="miter"
     stroke="#ffffff"
     stroke-opacity="1"
     stroke-miterlimit="10"
     d="m 25.588945,38.877718 c 0,-5.949219 -4.824219,-10.773438 -10.773438,-10.773438 -5.9531247,0 -10.7773427,4.824219 -10.7773427,10.773438 0,5.953125 4.824218,10.777344 10.7773427,10.777344 5.949219,0 10.773438,-4.824219 10.773438,-10.777344"
     id="path8" />
  <path
     fill="none"
     stroke-width="0.89664"
     stroke-linecap="butt"
     stroke-linejoin="miter"
     stroke="#ffffff"
     stroke-opacity="1"
     stroke-miterlimit="10"
     d="m 0.44832,47.174593 14.367187,8.292969"
     id="path9" />
  <path
     fill="none"
     stroke-width="0.89664"
     stroke-linecap="butt"
     stroke-linejoin="miter"
     stroke="#ffffff"
     stroke-opacity="1"
     stroke-miterlimit="10"
     d="M 14.815507,55.467562 29.178789,47.174593"
     id="path10" />
  <path
     fill="none"
     stroke-width="0.89664"
     stroke-linecap="butt"
     stroke-linejoin="miter"
     stroke="#ffffff"
     stroke-opacity="1"
     stroke-miterlimit="10"
     d="M 29.178789,47.174593 V 30.584749"
     id="path11" />
  <g
     fill="#ffffff"
     fill-opacity="1"
     id="g11"
     transform="translate(-13.282149,-13.180876)">
    <use
       xlink:href="#glyph-0-0"
       x="55.006001"
       y="37.756001"
       id="use11" />
  </g>
  <path
     fill="none"
     stroke-width="0.89664"
     stroke-linecap="butt"
     stroke-linejoin="miter"
     stroke="#ffffff"
     stroke-opacity="1"
     stroke-miterlimit="10"
     d="M 29.178789,30.584749 40.862382,23.842562"
     id="path12" />
  <g
     fill="#ffffff"
     fill-opacity="1"
     id="g12"
     transform="translate(-13.282149,-13.180876)">
    <use
       xlink:href="#glyph-0-1"
       x="55.32"
       y="19.509001"
       id="use12" />
  </g>
  <g
     fill="#ffffff"
     fill-opacity="1"
     id="g13"
     transform="translate(-13.282149,-13.180876)">
    <use
       xlink:href="#glyph-0-2"
       x="61.208"
       y="19.509001"
       id="use13" />
  </g>
  <g
     fill="#ffffff"
     fill-opacity="1"
     id="g14"
     transform="translate(-13.282149,-13.180876)">
    <use
       xlink:href="#glyph-1-0"
       x="67.724998"
       y="20.506001"
       id="use14" />
  </g>
  <path
     fill="none"
     stroke-width="0.89664"
     stroke-linecap="butt"
     stroke-linejoin="miter"
     stroke="#ffffff"
     stroke-opacity="1"
     stroke-miterlimit="10"
     d="M 44.983476,17.350374 V 7.3230302"
     id="path14" />
  <g
     fill="#ffffff"
     fill-opacity="1"
     id="g15"
     transform="translate(-13.282149,-13.180876)">
    <use
       xlink:href="#glyph-0-1"
       x="71.122002"
       y="46.879002"
       id="use15" />
  </g>
  <g
     fill="#ffffff"
     fill-opacity="1"
     id="g16"
     transform="translate(-13.282149,-13.180876)">
    <use
       xlink:href="#glyph-0-2"
       x="77.010002"
       y="46.879002"
       id="use16" />
  </g>
  <g
     fill="#ffffff"
     fill-opacity="1"
     id="g17"
     transform="translate(-13.282149,-13.180876)">
    <use
       xlink:href="#glyph-1-1"
       x="83.527"
       y="47.875999"
       id="use17" />
  </g>
  <g
     fill="#ffffff"
     fill-opacity="1"
     id="g18"
     transform="translate(-13.282149,-13.180876)">
    <use
       xlink:href="#glyph-0-1"
       x="87.200996"
       y="46.879002"
       id="use18" />
  </g>
  <g
     fill="#ffffff"
     fill-opacity="1"
     id="g19"
     transform="translate(-13.282149,-13.180876)">
    <use
       xlink:href="#glyph-0-2"
       x="93.088997"
       y="46.879002"
       id="use19" />
  </g>
  <g
     fill="#ffffff"
     fill-opacity="1"
     id="g20"
     transform="translate(-13.282149,-13.180876)">
    <use
       xlink:href="#glyph-1-0"
       x="99.606003"
       y="47.875999"
       id="use20" />
  </g>
  <path
     fill="none"
     stroke-width="0.89664"
     stroke-linecap="butt"
     stroke-linejoin="miter"
     stroke="#ffffff"
     stroke-opacity="1"
     stroke-miterlimit="10"
     d="m 49.10457,23.842562 7.875,4.546875"
     id="path20" />
  <path
     fill="none"
     stroke-width="0.89664"
     stroke-linecap="butt"
     stroke-linejoin="miter"
     stroke="#ffffff"
     stroke-opacity="1"
     stroke-miterlimit="10"
     d="M 29.178789,30.584749 14.815507,22.29178"
     id="path21" />
  <path
     fill="none"
     stroke-width="0.89664"
     stroke-linecap="butt"
     stroke-linejoin="miter"
     stroke="#ffffff"
     stroke-opacity="1"
     stroke-miterlimit="10"
     d="M 14.815507,22.29178 0.44832,30.584749"
     id="path22" />
  <path
     fill="none"
     stroke-width="0.89664"
     stroke-linecap="butt"
     stroke-linejoin="miter"
     stroke="#ffffff"
     stroke-opacity="1"
     stroke-miterlimit="10"
     d="M 0.44832,30.584749 V 47.174593"
     id="path23" />
</svg>
